<?xml version="1.0" standalone="no"?>
<!DOCTYPE svg PUBLIC "-//W3C//DTD SVG 20010904//EN"
 "http://www.w3.org/TR/2001/REC-SVG-20010904/DTD/svg10.dtd">
<svg version="1.0" xmlns="http://www.w3.org/2000/svg"
 width="1280.000000pt" height="662.000000pt" viewBox="0 0 1280.000000 662.000000"
 preserveAspectRatio="xMidYMid meet">

<g transform="translate(0.000000,662.000000) scale(0.100000,-0.100000)"
fill="#000000" stroke="none">
<path d="M7725 5823 c25 -104 99 -163 200 -163 75 1 157 66 180 144 l14 46
-54 0 c-41 0 -55 -4 -55 -14 0 -8 -12 -28 -26 -45 -35 -42 -84 -43 -125 -2
-16 16 -29 37 -29 45 0 13 -12 16 -56 16 l-56 0 7 -27z"/>
<path d="M2086 5629 c-66 -16 -103 -46 -133 -107 l-28 -57 -3 -292 c-4 -334 4
-392 61 -451 76 -78 267 -81 339 -5 63 68 63 66 63 433 l0 336 -25 49 c-19 37
-37 55 -70 72 -52 26 -146 37 -204 22z m133 -155 c20 -26 21 -38 21 -324 0
-286 -1 -298 -21 -324 -27 -34 -96 -37 -125 -5 -18 20 -19 40 -19 324 l0 303
24 26 c34 36 92 36 120 0z"/>
<path d="M4863 5630 c-75 -18 -132 -73 -153 -149 -6 -20 -10 -170 -10 -349 0
-340 2 -357 58 -415 30 -31 105 -57 166 -57 88 0 170 41 201 99 20 39 38 122
28 132 -4 4 -38 10 -75 14 -65 7 -68 6 -68 -14 0 -30 -26 -77 -45 -85 -57 -21
-109 7 -120 66 -3 18 -5 153 -3 300 3 253 4 268 24 295 15 20 31 29 58 31 47
4 72 -17 87 -71 11 -43 12 -43 112 -16 l39 10 -7 42 c-4 23 -13 54 -21 68 -42
82 -160 126 -271 99z"/>
<path d="M5573 5630 c-48 -11 -96 -42 -120 -79 -39 -57 -45 -121 -41 -443 3
-302 3 -303 28 -348 44 -79 149 -115 267 -91 70 14 119 51 147 110 20 44 21
61 21 366 0 359 -4 386 -70 444 -49 43 -149 61 -232 41z m112 -136 c40 -16 45
-50 45 -344 0 -339 -3 -350 -95 -350 -24 0 -39 7 -54 26 -20 26 -21 38 -21
316 0 341 3 355 82 357 14 1 34 -2 43 -5z"/>
<path d="M8604 5629 c-60 -14 -119 -68 -141 -132 -16 -46 -18 -87 -18 -357 0
-333 3 -354 57 -416 20 -22 47 -39 81 -49 128 -38 247 0 293 95 23 47 37 117
26 124 -4 2 -37 7 -73 10 l-67 7 -6 -36 c-4 -20 -16 -45 -27 -56 -27 -27 -90
-26 -115 2 -18 20 -19 40 -19 324 l0 303 24 26 c49 52 126 26 137 -46 7 -40 7
-40 43 -34 20 3 53 11 74 17 36 10 38 12 32 42 -14 69 -28 97 -64 130 -56 50
-142 67 -237 46z"/>
<path d="M1250 5605 c0 -21 -5 -25 -27 -25 -76 0 -191 -91 -212 -167 -18 -62
-14 -439 5 -502 25 -87 123 -161 211 -161 20 0 23 -5 23 -40 l0 -40 75 0 75 0
0 38 c0 37 1 37 52 50 105 25 169 92 189 197 6 36 10 138 7 250 -3 181 -4 193
-29 240 -32 64 -93 110 -164 126 -47 11 -55 15 -55 36 0 22 -3 23 -75 23 -73
0 -75 -1 -75 -25z m0 -440 c0 -321 2 -309 -55 -283 -50 23 -55 48 -55 282 0
132 4 224 11 239 12 26 55 56 82 57 16 0 17 -21 17 -295z m226 261 l34 -34 0
-227 0 -227 -34 -34 c-19 -19 -43 -34 -55 -34 -21 0 -21 2 -21 295 0 293 0
295 21 295 12 0 36 -15 55 -34z"/>
<path d="M2680 5150 l0 -480 75 0 75 0 0 210 0 210 85 0 85 0 0 -210 0 -210
75 0 75 0 0 480 0 480 -75 0 -75 0 0 -200 0 -200 -85 0 -85 0 0 200 0 200 -75
0 -75 0 0 -480z"/>
<path d="M3526 5498 c-3 -73 -9 -234 -14 -358 -7 -172 -13 -234 -26 -265 -22
-52 -42 -72 -77 -80 l-29 -7 0 -149 0 -149 65 0 65 0 0 90 0 90 195 0 195 0 0
-90 0 -90 60 0 60 0 0 155 0 155 -30 0 -30 0 0 415 0 415 -214 0 -214 0 -6
-132z m284 -353 l0 -345 -105 0 -104 0 15 43 c17 48 33 287 34 505 l0 142 80
0 80 0 0 -345z"/>
<path d="M6246 5463 c-17 -497 -21 -547 -47 -599 -16 -34 -34 -53 -56 -63
l-33 -15 0 -148 0 -148 60 0 60 0 0 90 0 90 195 0 195 0 0 -90 0 -90 60 0 60
0 0 155 0 155 -30 0 -30 0 0 415 0 415 -214 0 -214 0 -6 -167z m284 -318 l0
-345 -105 0 -104 0 15 43 c19 51 33 266 34 485 l0 162 80 0 80 0 0 -345z"/>
<path d="M6990 5150 l0 -480 215 0 215 0 0 65 0 65 -140 0 -140 0 0 145 0 145
120 0 120 0 0 70 0 70 -120 0 -120 0 0 130 0 130 140 0 140 0 0 70 0 70 -215
0 -215 0 0 -480z"/>
<path d="M7660 5150 l0 -480 73 0 72 0 99 293 c55 160 103 296 108 302 4 5 8
-127 8 -293 l0 -302 70 0 70 0 0 480 0 481 -72 -3 -72 -3 -100 -304 -101 -304
-3 307 -2 306 -75 0 -75 0 0 -480z"/>
<path d="M9100 5560 l0 -70 80 0 80 0 0 -410 0 -410 70 0 70 0 0 410 0 410 80
0 80 0 0 70 0 70 -230 0 -230 0 0 -70z"/>
<path d="M9790 5149 l0 -481 148 4 c126 3 153 7 188 26 89 46 119 111 119 257
0 117 -18 166 -73 198 l-34 20 32 25 c46 36 70 94 70 170 0 88 -16 144 -57
191 -48 56 -102 71 -265 71 l-128 0 0 -481z m281 312 c25 -25 29 -37 29 -85 0
-96 -35 -136 -120 -136 l-40 0 0 125 0 125 51 0 c43 0 55 -5 80 -29z m-23
-362 c41 -14 62 -61 62 -138 0 -71 -19 -124 -49 -141 -12 -6 -44 -14 -71 -17
l-50 -6 0 157 0 156 39 0 c21 0 52 -5 69 -11z"/>
<path d="M10530 5150 l0 -480 73 0 72 0 100 300 c55 165 103 300 107 300 5 0
8 -135 8 -300 l0 -300 70 0 70 0 0 480 0 481 -72 -3 -72 -3 -100 -302 c-55
-167 -104 -303 -108 -303 -5 0 -8 137 -8 305 l0 305 -70 0 -70 0 0 -480z"/>
<path d="M11478 5616 c-134 -48 -194 -183 -157 -358 9 -42 21 -62 55 -95 44
-43 44 -43 25 -62 -37 -37 -53 -83 -82 -240 -16 -86 -29 -164 -29 -173 0 -15
10 -18 69 -18 81 0 72 -15 101 160 11 69 28 145 36 168 19 50 62 82 112 82
l32 0 0 -205 0 -205 75 0 75 0 0 480 0 480 -137 0 c-89 -1 -151 -6 -175 -14z
m162 -261 l0 -135 -49 0 c-99 0 -135 34 -134 129 1 102 36 140 126 141 l57 0
0 -135z"/>
<path d="M4565 4311 c-89 -23 -148 -76 -182 -162 -16 -39 -18 -85 -18 -444 0
-396 0 -400 23 -450 47 -103 104 -137 238 -143 153 -7 237 34 285 140 24 52
24 57 27 436 3 324 1 392 -13 445 -31 121 -106 177 -247 183 -46 2 -96 0 -113
-5z m144 -177 c48 -34 51 -59 51 -418 0 -419 -4 -436 -113 -436 -52 0 -84 28
-98 87 -12 52 -11 607 1 674 17 92 95 137 159 93z"/>
<path d="M1020 3715 l0 -595 89 0 88 0 123 363 c67 199 127 366 131 372 5 5 9
-153 9 -363 l0 -372 90 0 90 0 0 595 0 595 -89 0 -89 0 -129 -382 -128 -383
-3 383 -2 382 -90 0 -90 0 0 -595z"/>
<path d="M2160 3715 l0 -595 90 0 90 0 0 260 0 260 110 0 110 0 0 -260 0 -260
90 0 90 0 0 595 0 595 -90 0 -90 0 0 -250 0 -250 -110 0 -110 0 0 250 0 250
-90 0 -90 0 0 -595z"/>
<path d="M3260 3715 l0 -595 95 0 95 0 0 260 0 260 110 0 110 0 0 -260 0 -260
90 0 90 0 0 595 0 595 -90 0 -90 0 0 -250 0 -250 -110 0 -110 0 0 250 0 250
-95 0 -95 0 0 -595z"/>
<path d="M5460 3714 l0 -596 183 4 c166 3 186 6 230 27 107 53 152 149 152
326 0 98 -3 116 -27 167 -21 46 -35 61 -70 79 -39 20 -41 23 -23 33 11 6 34
25 51 42 76 73 85 274 18 391 -56 96 -134 123 -361 123 l-153 0 0 -596z m320
408 c45 -22 62 -60 63 -137 1 -70 -22 -121 -64 -142 -13 -7 -50 -13 -81 -13
l-58 0 0 155 0 155 53 0 c29 0 67 -8 87 -18z m10 -477 c47 -24 64 -68 64 -165
-1 -144 -38 -190 -154 -190 l-60 0 0 185 0 185 60 0 c35 0 74 -7 90 -15z"/>
<path d="M6697 4223 c-10 -49 -64 -316 -121 -595 l-103 -508 92 0 92 0 24 123
24 122 111 3 c109 3 112 2 117 -20 3 -13 13 -69 23 -125 l19 -103 92 0 c51 0
93 1 93 3 0 2 -50 246 -110 543 -61 296 -115 563 -121 592 l-10 52 -103 0
-102 0 -17 -87z m164 -435 c21 -133 36 -246 33 -250 -6 -10 -151 -11 -157 0
-2 4 11 104 29 222 46 290 45 283 51 276 3 -3 23 -115 44 -248z"/>
<path d="M7610 3715 l0 -595 255 0 255 0 0 -115 0 -115 75 0 75 0 0 200 0 200
-40 0 -40 0 0 510 0 510 -90 0 -90 0 0 -510 0 -510 -105 0 -105 0 0 510 0 510
-95 0 -95 0 0 -595z"/>
<path d="M8720 3715 l0 -595 89 0 88 0 123 363 c67 199 126 366 131 372 5 5 9
-147 9 -363 l0 -372 90 0 90 0 0 595 0 595 -89 0 -89 0 -129 -382 -128 -383
-3 383 -2 382 -90 0 -90 0 0 -595z"/>
<path d="M10077 4299 c-166 -39 -252 -196 -226 -411 13 -101 40 -145 128 -205
2 -1 -12 -20 -31 -41 -46 -50 -61 -98 -98 -312 -17 -96 -33 -183 -36 -192 -5
-16 4 -18 89 -18 l93 0 32 187 c44 257 73 309 176 320 l46 6 0 -257 0 -256 95
0 95 0 0 595 0 595 -162 -1 c-90 -1 -180 -5 -201 -10z m173 -329 l0 -170 -61
0 c-118 0 -164 45 -163 160 0 47 7 77 23 108 27 53 64 71 144 72 l57 0 0 -170z"/>
<path d="M10950 3715 l0 -595 90 0 90 0 0 345 c0 190 3 345 8 345 4 0 18 -30
31 -67 13 -38 49 -134 80 -215 l56 -148 56 0 56 0 65 173 c36 94 71 189 78
210 6 20 16 37 21 37 5 0 9 -139 9 -340 l0 -340 90 0 90 0 0 595 0 595 -89 0
-88 0 -80 -207 c-44 -115 -95 -250 -113 -300 -18 -51 -36 -93 -39 -93 -4 0
-46 105 -94 233 -48 127 -98 262 -113 300 l-26 67 -89 0 -89 0 0 -595z"/>
<path d="M1150 2634 c1051 -1061 2567 -1751 4325 -1968 424 -52 575 -61 1110
-61 510 0 601 4 965 46 1162 133 2250 511 3085 1071 310 209 522 384 795 657
242 242 330 345 180 211 -1360 -1220 -3538 -1794 -5770 -1519 -1284 158 -2468
606 -3265 1234 -153 121 -353 301 -421 380 l-48 55 -530 0 -531 0 105 -106z"/>
</g>
</svg>
